<svg width="78" height="30" viewBox="0 0 78 30" fill="none" xmlns="http://www.w3.org/2000/svg" role="img" aria-label="GPay">
  <path d="M24.1 15.3c0-.8-.1-1.5-.2-2.1H15v3.7h5.1c-.2 1.2-.9 2.2-2 2.8v2.5h3.2c1.9-1.7 2.8-4.2 2.8-6.9Z" fill="#4285F4"/>
  <path d="M15 24.5c2.7 0 4.9-.9 6.5-2.4l-3.2-2.5c-.9.6-2 .9-3.3.9-2.5 0-4.6-1.7-5.4-4H6.3v2.6c1.6 3.2 4.9 5.4 8.7 5.4Z" fill="#34A853"/>
  <path d="M9.6 16.5c-.2-.6-.3-1.2-.3-1.9s.1-1.3.3-1.9V10H6.3c-.7 1.4-1.1 2.9-1.1 4.6s.4 3.2 1.1 4.6l3.3-2.7Z" fill="#FBBC04"/>
  <path d="M15 8.7c1.5 0 2.8.5 3.8 1.5l2.8-2.8C19.9 5.8 17.7 5 15 5c-3.8 0-7.1 2.2-8.7 5.4l3.3 2.7c.8-2.4 2.9-4.4 5.4-4.4Z" fill="#EA4335"/>
  <text x="33" y="20.1" fill="#1F1F1F" font-family="Arial, Helvetica, sans-serif" font-size="17" font-weight="700" letter-spacing="-0.3">Pay</text>
</svg>
